# xmcd CD database file
#
# Track frame offsets:
#	150
#	14427
#	28259
#	40758
#	55794
#	68177
#	79412
#	91960
#	107005
#	121688
#	135113
#	147964
#	163206
#	177241
#	188974
#	201849
#	215246
#
# Disc length: 3078 seconds
#
# Revision: 0
# Processed by: cddbd v1.5.2PL0 Copyright (c) Steve Scherf et al.
# Submitted via: CDex 1.70beta2
#
DISCID=f20c0411
DTITLE=Frank Sinatra - Sweet Lorraine
DYEAR=2005
DGENRE=Jazz
TTITLE0=Sweet Lorraine
TTITLE1=I Believe
TTITLE2=All Off Me
TTITLE3=Mam' Selle
TTITLE4=Saturday Night
TTITLE5=Blue Skies
TTITLE6=S'posin'
TTITLE7=There's No Business Like Show Business
TTITLE8=Duet with Dinah Shore - Tea For Two
TTITLE9=With Pied Pipers - The Dum - Dot Song
TTITLE10=Two Hearts Are Better Than One
TTITLE11=White Christmas
TTITLE12=A Little Learnin' Is A Dangerous Thing
TTITLE13=Five Minutes More
TTITLE14=Duet with Dinah Shore - It's All Up To You
TTITLE15=Strangers In The Night
TTITLE16=New York, New York
EXTD=YEAR: 2005
EXTT0=
EXTT1=
EXTT2=
EXTT3=
EXTT4=
EXTT5=
EXTT6=
EXTT7=
EXTT8=
EXTT9=
EXTT10=
EXTT11=
EXTT12=
EXTT13=
EXTT14=
EXTT15=
EXTT16=
PLAYORDER=
